<?xml version="1.0" standalone="no"?>
<!DOCTYPE svg PUBLIC "-//W3C//DTD SVG 20010904//EN"
 "http://www.w3.org/TR/2001/REC-SVG-20010904/DTD/svg10.dtd">
<svg version="1.0" xmlns="http://www.w3.org/2000/svg"
 width="460.000000pt" height="460.000000pt" viewBox="0 0 460.000000 460.000000"
 preserveAspectRatio="xMidYMid meet">
<metadata>
Created by potrace 1.14, written by Peter Selinger 2001-2017
</metadata>
<g transform="translate(0.000000,460.000000) scale(0.100000,-0.100000)"
fill="#000000" stroke="none">
<path d="M0 2300 l0 -2300 2300 0 2300 0 0 2300 0 2300 -2300 0 -2300 0 0
-2300z m2557 2044 c-3 -3 -12 -4 -19 -1 -8 3 -5 6 6 6 11 1 17 -2 13 -5z m130
-30 c-3 -3 -12 -4 -19 -1 -8 3 -5 6 6 6 11 1 17 -2 13 -5z m320 -120 c-3 -3
-12 -4 -19 -1 -8 3 -5 6 6 6 11 1 17 -2 13 -5z m62 -24 c4 0 18 -9 31 -20 34
-29 7 -25 -37 6 -21 15 -30 24 -20 20 10 -3 22 -6 26 -6z m-19 -24 c0 -3 -4
-8 -10 -11 -5 -3 -10 -1 -10 4 0 6 5 11 10 11 6 0 10 -2 10 -4z m-773 -38 c-3
-8 -6 -5 -6 6 -1 11 2 17 5 13 3 -3 4 -12 1 -19z m886 1 l22 -21 -22 11 c-12
6 -25 16 -28 21 -11 17 5 11 28 -11z m-490 -51 c64 -116 158 -391 157 -459 -1
-21 -3 -20 -20 11 -11 19 -19 43 -20 52 0 10 -9 22 -19 28 -11 5 -23 24 -26
42 -4 18 -14 42 -21 53 -9 13 -10 25 -4 35 14 22 12 51 -5 84 -8 15 -15 36
-15 46 0 28 -47 104 -54 88 -3 -7 -3 -3 0 10 3 13 -1 33 -10 47 -9 14 -12 25
-7 25 5 0 25 -28 44 -62z m-316 -25 c-3 -10 -5 -4 -5 12 0 17 2 24 5 18 2 -7
2 -21 0 -30z m-20 -65 c-3 -7 -5 -2 -5 12 0 14 2 19 5 13 2 -7 2 -19 0 -25z
m88 -336 c9 -65 23 -141 32 -170 8 -30 12 -56 10 -59 -6 -5 -37 92 -42 130 -1
12 -9 49 -18 82 -17 70 -30 270 -19 317 5 24 9 4 14 -75 3 -60 14 -161 23
-225z m958 251 c62 -79 150 -247 182 -348 20 -63 54 -209 50 -213 -2 -2 -13
28 -25 67 -11 39 -25 71 -30 71 -6 0 -10 9 -10 21 0 34 -30 87 -70 125 -20 19
-47 60 -60 91 -21 51 -22 57 -7 68 14 10 14 15 3 31 -30 44 -67 114 -61 114 4
0 17 -12 28 -27z m-793 -129 c0 -55 -25 -62 -28 -8 -2 20 -3 39 -4 43 -3 26 3
33 17 21 9 -8 15 -30 15 -56z m86 58 c19 -12 26 -98 9 -112 -12 -10 -18 -10
-29 -1 -15 13 -38 100 -30 113 6 10 35 10 50 0z m558 -59 c18 -53 21 -99 6
-108 -5 -3 -10 1 -10 10 0 8 -9 43 -20 76 -19 56 -19 86 0 74 4 -3 15 -26 24
-52z m-151 20 c2 -5 7 -25 11 -45 6 -34 5 -38 -14 -38 -17 0 -20 6 -20 45 0
40 11 58 23 38z m109 -45 c3 -29 3 -58 1 -65 -10 -25 -21 -13 -27 30 -4 23 -9
52 -13 65 -4 17 -1 22 15 22 16 0 20 -9 24 -52z m151 5 c26 -84 26 -89 1 -91
-26 -2 -48 34 -59 98 -6 38 -5 40 18 40 21 0 28 -7 40 -47z m84 -125 c-3 -8
-6 -5 -6 6 -1 11 2 17 5 13 3 -3 4 -12 1 -19z m-440 -40 c-3 -8 -6 -5 -6 6 -1
11 2 17 5 13 3 -3 4 -12 1 -19z m-150 -65 c-3 -10 -5 -4 -5 12 0 17 2 24 5 18
2 -7 2 -21 0 -30z m570 15 c-3 -8 -6 -5 -6 6 -1 11 2 17 5 13 3 -3 4 -12 1
-19z m-1430 -90 c-3 -8 -6 -5 -6 6 -1 11 2 17 5 13 3 -3 4 -12 1 -19z m447
-24 c3 -8 2 -12 -4 -9 -6 3 -10 10 -10 16 0 14 7 11 14 -7z m-214 -442 c0 -7
9 -32 20 -54 25 -53 25 -66 -2 -89 -35 -28 -55 -24 -61 14 -6 39 -2 47 24 47
10 0 19 5 19 10 0 6 -10 8 -23 5 -22 -6 -22 -5 -20 82 2 48 3 93 3 98 2 13 39
-96 40 -113z m767 -34 c-3 -8 -6 -5 -6 6 -1 11 2 17 5 13 3 -3 4 -12 1 -19z
m-947 -75 c0 -11 -30 -33 -44 -33 -3 0 -6 28 -6 63 l0 62 25 -40 c13 -22 25
-45 25 -52z m933 -85 c-36 -41 -55 -15 -46 62 l6 51 28 -48 c26 -44 27 -49 12
-65z m614 80 c-3 -7 -5 -2 -5 12 0 14 2 19 5 13 2 -7 2 -19 0 -25z m-1237 13
c0 -16 75 -99 117 -130 91 -66 141 -84 375 -136 l77 -17 7 -57 c4 -31 11 -67
16 -81 13 -34 48 -70 69 -70 9 0 19 -5 21 -11 4 -11 42 -14 83 -7 30 6 85 41
85 54 0 7 7 19 15 28 20 20 38 117 31 167 -3 23 -1 39 5 39 5 0 36 -14 69 -30
l60 -30 0 -58 c0 -74 -28 -553 -36 -612 -10 -83 -68 -150 -213 -248 -46 -31
-109 -75 -141 -97 -54 -37 -191 -129 -270 -181 -19 -12 -46 -25 -60 -29 -25
-6 -146 18 -178 35 -9 5 -37 15 -62 23 -25 8 -76 27 -115 42 -80 31 -136 43
-120 27 19 -20 245 -100 373 -133 78 -20 94 -21 135 -4 16 7 17 -3 11 -152 -5
-116 -4 -162 4 -167 9 -5 12 9 12 48 0 52 10 70 25 46 3 -6 23 -19 43 -29 20
-10 62 -31 92 -47 64 -34 153 -70 193 -80 34 -8 42 -24 30 -61 -8 -24 -17 -29
-59 -35 -191 -28 -286 -47 -302 -61 -9 -8 -29 -18 -44 -22 -26 -7 -55 -31 -47
-40 3 -2 38 13 79 34 56 29 93 40 145 45 39 4 95 11 127 17 31 6 61 10 67 8
15 -5 -51 -137 -78 -156 -12 -8 -21 -20 -21 -26 -1 -30 -172 -141 -240 -156
-104 -23 -265 39 -445 172 -124 91 -127 94 -155 117 l-25 21 135 -4 c126 -5
188 -16 273 -52 10 -4 17 -3 17 4 0 6 -5 11 -10 11 -6 0 -30 9 -53 20 -33 17
-78 23 -208 32 l-166 12 -38 118 c-20 66 -36 120 -34 121 2 1 14 11 27 22 20
16 25 17 32 5 7 -11 11 -8 20 14 31 82 31 253 1 355 -13 42 -9 48 21 27 26
-18 38 -20 38 -6 0 5 -24 23 -52 40 -29 17 -87 54 -128 83 -71 50 -75 54 -87
107 -7 30 -17 93 -23 140 -6 47 -20 127 -30 178 -23 104 -30 236 -16 267 9 17
8 18 -6 7 -14 -11 -17 -5 -26 50 -23 132 -24 158 -8 164 15 6 63 -20 83 -46
16 -21 27 -6 14 18 -15 29 -14 72 3 72 9 0 15 -21 19 -71 4 -49 14 -83 31
-113 32 -54 96 -100 127 -91 12 4 24 3 28 -4 10 -15 49 -2 56 20 4 10 14 19
24 19 27 0 52 34 67 91 11 43 11 63 -1 127 -10 51 -11 78 -5 82 6 4 8 14 4 23
-5 14 1 17 35 17 23 0 41 4 41 8 0 5 -25 21 -55 36 -30 14 -55 30 -55 34 0 9
27 31 57 49 18 10 24 6 58 -48 39 -62 123 -144 156 -152 28 -8 23 5 -17 44
-46 44 -137 219 -113 219 5 0 9 -4 9 -9z m-481 -86 l19 -33 -24 -23 c-13 -12
-27 -19 -31 -15 -4 3 -9 34 -11 69 -4 55 -3 60 11 49 9 -8 25 -29 36 -47z
m200 31 c9 -11 6 -15 -16 -19 -16 -3 -36 -9 -45 -12 -12 -5 -18 -2 -18 7 0 8
12 19 28 25 37 15 38 15 51 -1z m-189 -111 c-13 -14 -28 -25 -34 -25 -11 1 40
50 51 50 4 0 -4 -11 -17 -25z m1488 -57 c19 -19 14 -30 -8 -18 -11 6 -20 15
-20 20 0 14 14 12 28 -2z m-1922 -333 c45 -27 44 -24 59 -135 l6 -45 -28 25
c-15 14 -42 35 -60 48 -40 28 -55 10 -19 -23 17 -16 26 -35 26 -54 0 -34 19
-81 32 -81 5 0 6 24 2 53 -6 47 -5 50 9 32 8 -11 17 -38 21 -60 4 -21 17 -52
27 -67 19 -26 44 -136 34 -147 -13 -12 -190 131 -210 170 -17 32 -21 202 -5
243 9 25 44 66 57 66 3 0 26 -11 49 -25z m71 -257 c-3 -7 -5 -2 -5 12 0 14 2
19 5 13 2 -7 2 -19 0 -25z"/>
<path d="M3315 2430 c3 -5 11 -10 16 -10 6 0 7 5 4 10 -3 6 -11 10 -16 10 -6
0 -7 -4 -4 -10z"/>
<path d="M3280 2400 c0 -5 5 -10 11 -10 5 0 7 5 4 10 -3 6 -8 10 -11 10 -2 0
-4 -4 -4 -10z"/>
<path d="M2676 2376 c21 -15 30 -14 19 3 -3 6 -14 11 -23 11 -13 0 -13 -2 4
-14z"/>
<path d="M1866 2284 c-4 -10 -1 -14 6 -12 15 5 23 28 10 28 -5 0 -13 -7 -16
-16z"/>
<path d="M2587 1790 c-31 -25 -26 -48 5 -26 16 11 26 12 40 5 17 -9 19 -7 16
13 -4 30 -28 34 -61 8z"/>
</g>
</svg>
